<svg id="组_742" data-name="组 742" xmlns="http://www.w3.org/2000/svg" xmlns:xlink="http://www.w3.org/1999/xlink" width="2325" height="2129" viewBox="0 0 2325 2129">
  <defs>
    <style>
      .cls-1 {
        fill: #030b27;
        fill-opacity: 0.45;
        opacity: 0.8;
        filter: url(#filter);
      }

      .cls-1, .cls-2, .cls-4, .cls-5 {
        fill-rule: evenodd;
      }

      .cls-2, .cls-3 {
        fill: none;
        stroke: #3b68cd;
        stroke-linecap: square;
        stroke-linejoin: round;
        stroke-width: 8px;
        opacity: 0.3;
      }

      .cls-4, .cls-5 {
        fill: #3b68cd;
      }

      .cls-4 {
        opacity: 0.7;
      }

      .cls-5 {
        opacity: 0.45;
      }
    </style>
    <filter id="filter" x="743" y="31" width="2325" height="2155" filterUnits="userSpaceOnUse">
      <feOffset result="offset" dy="10" in="SourceAlpha"/>
      <feGaussianBlur result="blur" stdDeviation="9.899"/>
      <feFlood result="flood" flood-opacity="0.3"/>
      <feComposite result="composite" operator="in" in2="blur"/>
      <feBlend result="blend" in="SourceGraphic"/>
      <feGaussianBlur result="blur-2" stdDeviation="10" in="SourceAlpha"/>
      <feFlood result="flood-2" flood-color="#3e5db6" flood-opacity="0.6"/>
      <feComposite result="composite-3" operator="out" in2="blur-2"/>
      <feComposite result="composite-2" operator="in" in2="SourceAlpha"/>
      <feBlend result="blend-2" in2="blend"/>
    </filter>
  </defs>
  <path id="形状_9" data-name="形状 9" class="cls-1" d="M989.5,118H2797l108,108V824l65,45v521l-52,52v479l-101,101H2387l-56,56H1584l-66-56H997l-94-94V1176l-63-53V670l45-45V224Z" transform="translate(-743 -31)"/>
  <path id="形状_16" data-name="形状 16" class="cls-2" d="M1140,174H1016l-71,71V432l-36,26" transform="translate(-743 -31)"/>
  <circle id="椭圆_6" data-name="椭圆 6" class="cls-3" cx="421" cy="147" r="12"/>
  <path id="形状_16_拷贝" data-name="形状 16 拷贝" class="cls-2" d="M2660,1965h124l71-71V1707l36-26" transform="translate(-743 -31)"/>
  <circle id="椭圆_6_拷贝" data-name="椭圆 6 拷贝" class="cls-3" cx="1893" cy="1930" r="12"/>
  <path id="矩形_8" data-name="矩形 8" class="cls-4" d="M1561,2025h120v28h-88Z" transform="translate(-743 -31)"/>
  <path id="矩形_9_拷贝_6" data-name="矩形 9 拷贝 6" class="cls-5" d="M1691,2025h12v28h-12v-28Zm19,0h12v28h-12v-28Zm19,0h12v28h-12v-28Zm19,0h12v28h-12v-28Zm19,0h12v28h-12v-28Zm19,0h12v28h-12v-28Zm19,0h12v28h-12v-28Zm19,0h12v28h-12v-28Zm19,0h12v28h-12v-28Zm19,0h12v28h-12v-28Zm19,0h12v28h-12v-28Zm19,0h12v28h-12v-28Zm19,0h12v28h-12v-28Zm19,0h12v28h-12v-28Zm19,0h12v28h-12v-28Zm19,0h12v28h-12v-28Z" transform="translate(-743 -31)"/>
  <path id="矩形_9_拷贝_7" data-name="矩形 9 拷贝 7" class="cls-5" d="M1995,2025h12v28h-12v-28Zm19,0h12v28h-12v-28Zm19,0h12v28h-12v-28Zm19,0h12v28h-12v-28Zm19,0h12v28h-12v-28Zm19,0h12v28h-12v-28Zm19,0h12v28h-12v-28Zm19,0h12v28h-12v-28Zm19,0h12v28h-12v-28Zm19,0h12v28h-12v-28Zm19,0h12v28h-12v-28Zm19,0h12v28h-12v-28Zm19,0h12v28h-12v-28Zm19,0h12v28h-12v-28Z" transform="translate(-743 -31)"/>
  <path id="矩形_8_拷贝" data-name="矩形 8 拷贝" class="cls-4" d="M2264,2025h80l-28,28h-52v-28Z" transform="translate(-743 -31)"/>
</svg>
